<svg width="81" height="66" viewBox="0 0 81 66" fill="none" xmlns="http://www.w3.org/2000/svg">
<path d="M66.7781 10.7589C61.879 4.53613 52.5593 0.323074 41.845 0.323074C28.7292 0.323074 17.6807 6.64063 14.3179 15.3036C6.00638 18.2729 0 26.2172 0 35.5501C0 47.4137 9.65665 57.0376 21.5717 57.0376C25.7997 57.0376 29.7388 55.8426 33.0549 53.7367L34.063 63.1156C34.3037 65.2729 37.0422 66.0389 38.3887 64.3133L47.7551 51.9191C48.4772 52.0139 49.1979 52.11 49.9172 52.11C55.8273 52.11 60.8227 48.4274 62.8404 43.2602C72.9756 42.681 80.9997 35.5054 80.9997 26.6976C81.0465 19.0836 74.9933 12.7213 66.7781 10.7589Z" fill="white"/>
</svg>
